<svg width="64.000000" height="64.000000" viewBox="0 0 64 64" fill="none" xmlns="http://www.w3.org/2000/svg" xmlns:xlink="http://www.w3.org/1999/xlink">
	<desc>
			Created with Pixso.
	</desc>
	<defs>
		<clipPath id="clip302815_4230">
			<rect id="antenna 1" rx="0.000000" width="63.000000" height="63.000000" transform="translate(0.500000 0.500000)" fill="white" fill-opacity="0"/>
		</clipPath>
	</defs>
	<rect id="antenna 1" rx="0.000000" width="63.000000" height="63.000000" transform="translate(0.500000 0.500000)" fill="#FFFFFF" fill-opacity="0"/>
	<g clip-path="url(#clip302815_4230)">
		<path id="Vector" d="M61.54 44.19L44.65 27.18L46.53 17.95C47.01 18.14 47.53 18.24 48.05 18.24L48.06 18.24C50.44 18.27 52.4 16.36 52.43 13.97C52.46 11.59 50.55 9.63 48.16 9.61C45.78 9.58 43.82 11.49 43.79 13.87C43.79 14.38 43.87 14.89 44.04 15.37L34.12 16.58L17.94 0.32C17.74 0.11 17.47 0 17.19 0C16.91 0 16.64 0.11 16.44 0.31L13.42 3.31C13 3.73 13 4.41 13.42 4.82L15.04 6.47C8.74 18.07 10.79 32.43 20.08 41.8C20.17 41.88 20.27 41.95 20.37 41.99C20.31 42.35 20.27 42.72 20.27 43.09L20.27 55.46L7.47 55.46C4.53 55.47 2.14 57.85 2.14 60.8L2.14 62.93C2.14 63.52 2.61 64 3.2 64L52.27 64C52.86 64 53.34 63.52 53.34 62.93L53.34 60.8C53.33 57.85 50.95 55.47 48 55.46L35.2 55.46L35.2 49.98C37.21 50.4 39.25 50.61 41.3 50.62C46.22 50.61 51.05 49.39 55.38 47.05L57.02 48.7C57.22 48.9 57.49 49.01 57.77 49.02C58.05 49.02 58.32 48.9 58.52 48.71L61.54 45.7C61.96 45.28 61.96 44.61 61.54 44.19ZM46.55 12.46C47.39 11.63 48.74 11.63 49.57 12.47C50.4 13.3 50.4 14.66 49.56 15.49C49.16 15.88 48.62 16.11 48.06 16.11L48.05 16.11C46.87 16.1 45.92 15.14 45.93 13.96C45.93 13.4 46.16 12.86 46.56 12.46L46.55 12.46ZM44.04 19.47L42.85 25.36L40.5 23L44.04 19.47ZM42.83 17.67L38.99 21.48L36.02 18.5L42.83 17.67ZM48 57.6C49.77 57.6 51.2 59.03 51.2 60.8L51.2 61.86L4.27 61.86L4.27 60.8C4.27 59.03 5.7 57.6 7.47 57.6L48 57.6ZM33.07 53.33L33.07 55.46L22.4 55.46L22.4 53.33L33.07 53.33ZM22.4 51.2L22.4 43.09C22.4 40.5 24.8 38.4 27.74 38.4C30.68 38.4 33.07 40.5 33.07 43.09L33.07 51.2L22.4 51.2ZM35.2 47.8L35.2 43.09C35.2 39.32 31.85 36.26 27.74 36.26C25.07 36.22 22.59 37.58 21.17 39.83C13.06 31.29 11.23 18.54 16.62 8.06L53.82 45.48C48.08 48.4 41.49 49.22 35.2 47.8ZM57.78 46.44L56.28 44.92L17.18 5.59L15.67 4.07L17.18 2.57L33.05 18.53C33.05 18.53 33.06 18.54 33.07 18.55L59.29 44.93L57.78 46.44Z" fill="#2E2F42" fill-opacity="1.000000" fill-rule="nonzero"/>
		<path id="Vector" d="M27.75 40.53L27.74 40.53C25.97 40.53 24.53 41.96 24.53 43.72C24.53 45.49 25.96 46.93 27.73 46.93L27.74 46.93C29.5 46.93 30.94 45.5 30.94 43.73C30.94 41.97 29.51 40.53 27.75 40.53ZM28.49 44.48C28.29 44.68 28.02 44.8 27.74 44.8C27.15 44.79 26.67 44.31 26.68 43.72C26.68 43.44 26.79 43.17 26.99 42.97C27.19 42.77 27.46 42.66 27.74 42.66C28.33 42.66 28.8 43.14 28.8 43.73C28.8 44.02 28.68 44.29 28.48 44.48L28.49 44.48Z" fill="#4D5AE5" fill-opacity="1.000000" fill-rule="nonzero"/>
	</g>
</svg>
