<svg width="64.000000" height="64.000000" viewBox="0 0 64 64" fill="none" xmlns="http://www.w3.org/2000/svg" xmlns:xlink="http://www.w3.org/1999/xlink">
	<desc>
			Created with Pixso.
	</desc>
	<defs>
		<clipPath id="clip302815_4140">
			<rect id="astronaut 1" rx="0.000000" width="63.000000" height="63.000000" transform="translate(0.500000 0.500000)" fill="white" fill-opacity="0"/>
		</clipPath>
	</defs>
	<rect id="astronaut 1" rx="0.000000" width="63.000000" height="63.000000" transform="translate(0.500000 0.500000)" fill="#FFFFFF" fill-opacity="0"/>
	<g clip-path="url(#clip302815_4140)">
		<path id="Vector" d="M63.94 9.04C63.82 8.66 63.48 8.38 63.08 8.32L59.26 7.76L57.55 4.3C57.19 3.57 56 3.57 55.64 4.3L53.93 7.76L50.11 8.32C49.71 8.38 49.37 8.66 49.25 9.04C49.12 9.43 49.23 9.85 49.52 10.14L52.28 12.83L51.63 16.64C51.56 17.04 51.73 17.44 52.05 17.68C52.38 17.92 52.82 17.95 53.18 17.76L56.59 15.97L60.01 17.76C60.17 17.84 60.34 17.89 60.51 17.89C60.73 17.89 60.95 17.82 61.14 17.68C61.47 17.44 61.63 17.04 61.56 16.64L60.91 12.83L63.67 10.14C63.96 9.85 64.07 9.43 63.94 9.04ZM59.02 11.7C58.77 11.94 58.65 12.3 58.71 12.64L59.09 14.87L57.09 13.82C56.94 13.74 56.77 13.7 56.59 13.7C56.42 13.7 56.25 13.74 56.1 13.82L54.1 14.87L54.48 12.64C54.54 12.3 54.42 11.94 54.17 11.7L52.55 10.12L54.79 9.79C55.14 9.74 55.44 9.52 55.59 9.21L56.59 7.18L57.59 9.21C57.75 9.52 58.05 9.74 58.4 9.79L60.64 10.12L59.02 11.7Z" fill="#4D5AE5" fill-opacity="1.000000" fill-rule="nonzero"/>
		<path id="Vector" d="M50.13 41.04L52.26 41.04L52.26 43.17L50.13 43.17L50.13 41.04Z" fill="#4D5AE5" fill-opacity="1.000000" fill-rule="evenodd"/>
		<path id="Vector" d="M50.13 45.31L52.26 45.31L52.26 47.44L50.13 47.44L50.13 45.31Z" fill="#4D5AE5" fill-opacity="1.000000" fill-rule="evenodd"/>
		<path id="Vector" d="M52.26 43.17L54.4 43.17L54.4 45.31L52.26 45.31L52.26 43.17Z" fill="#4D5AE5" fill-opacity="1.000000" fill-rule="evenodd"/>
		<path id="Vector" d="M48 43.17L50.13 43.17L50.13 45.31L48 45.31L48 43.17Z" fill="#4D5AE5" fill-opacity="1.000000" fill-rule="evenodd"/>
		<path id="Vector" d="M42.66 52.77L44.8 52.77L44.8 54.91L42.66 54.91L42.66 52.77Z" fill="#4D5AE5" fill-opacity="1.000000" fill-rule="evenodd"/>
		<path id="Vector" d="M42.66 57.04L44.8 57.04L44.8 59.17L42.66 59.17L42.66 57.04Z" fill="#4D5AE5" fill-opacity="1.000000" fill-rule="evenodd"/>
		<path id="Vector" d="M44.8 54.91L46.93 54.91L46.93 57.04L44.8 57.04L44.8 54.91Z" fill="#4D5AE5" fill-opacity="1.000000" fill-rule="evenodd"/>
		<path id="Vector" d="M40.53 54.91L42.66 54.91L42.66 57.04L40.53 57.04L40.53 54.91Z" fill="#4D5AE5" fill-opacity="1.000000" fill-rule="evenodd"/>
		<path id="Vector" d="M29.86 48.51L32 48.51L32 50.64L29.86 50.64L29.86 48.51Z" fill="#4D5AE5" fill-opacity="1.000000" fill-rule="evenodd"/>
		<path id="Vector" d="M29.86 52.77L32 52.77L32 54.91L29.86 54.91L29.86 52.77Z" fill="#4D5AE5" fill-opacity="1.000000" fill-rule="evenodd"/>
		<path id="Vector" d="M32 50.64L34.13 50.64L34.13 52.77L32 52.77L32 50.64Z" fill="#4D5AE5" fill-opacity="1.000000" fill-rule="evenodd"/>
		<path id="Vector" d="M27.73 50.64L29.86 50.64L29.86 52.77L27.73 52.77L27.73 50.64Z" fill="#4D5AE5" fill-opacity="1.000000" fill-rule="evenodd"/>
		<path id="Vector" d="M9.59 12.24L11.73 12.24L11.73 14.37L9.59 14.37L9.59 12.24Z" fill="#4D5AE5" fill-opacity="1.000000" fill-rule="evenodd"/>
		<path id="Vector" d="M9.59 16.51L11.73 16.51L11.73 18.64L9.59 18.64L9.59 16.51Z" fill="#4D5AE5" fill-opacity="1.000000" fill-rule="evenodd"/>
		<path id="Vector" d="M11.73 14.37L13.86 14.37L13.86 16.51L11.73 16.51L11.73 14.37Z" fill="#4D5AE5" fill-opacity="1.000000" fill-rule="evenodd"/>
		<path id="Vector" d="M7.46 14.37L9.59 14.37L9.59 16.51L7.46 16.51L7.46 14.37Z" fill="#4D5AE5" fill-opacity="1.000000" fill-rule="evenodd"/>
		<path id="Vector" d="M49.42 28.31C48.85 27.54 48.01 27.04 47.05 26.9C46.09 26.77 45.14 27.02 44.37 27.61L41.86 29.53L41.86 29.53L38.07 32.36L35.35 31.28C40.2 29.11 43.58 24.26 43.58 18.64C43.58 11 37.33 4.77 29.66 4.77C21.98 4.77 15.74 11 15.74 18.64C15.74 21.41 16.56 23.99 17.98 26.16L12.45 26.11C12.44 26.11 12.44 26.11 12.44 26.11C12.42 26.11 12.41 26.12 12.39 26.12C12.29 26.12 12.18 26.15 12.08 26.18C12.06 26.19 12.03 26.2 12 26.21C11.99 26.21 11.98 26.21 11.97 26.22L5.5 29.41C5.5 29.41 5.5 29.41 5.5 29.41L1.71 31.24C1.67 31.25 1.63 31.28 1.58 31.31C0.08 32.31 -0.44 34.28 0.39 35.9C0.83 36.75 1.58 37.39 2.5 37.67C2.86 37.79 3.22 37.84 3.58 37.84C4.16 37.84 4.73 37.7 5.26 37.42L8.03 35.94L12.56 33.6L15.27 33.59L4.39 44.42C4.39 44.42 4.39 44.42 4.39 44.42L1.71 47.09C1.08 47.72 0.73 48.55 0.73 49.44C0.73 50.33 1.08 51.17 1.71 51.8C2.36 52.45 3.21 52.77 4.07 52.77C4.92 52.77 5.78 52.45 6.43 51.8L9.06 49.18L12.54 46.58L14.34 48.38L10.82 51.89C10.82 51.89 10.82 51.89 10.81 51.89L8.14 54.55C7.5 55.18 7.16 56.02 7.16 56.91C7.16 57.8 7.5 58.64 8.14 59.27C8.79 59.91 9.64 60.24 10.5 60.24C11.35 60.24 12.21 59.91 12.86 59.27L15.54 56.6L19.82 52.33C19.82 52.33 19.82 52.33 19.82 52.33L21.84 50.33L21.83 50.32C21.85 50.31 21.87 50.31 21.88 50.29L32.21 38.98L39.15 39.96C39.2 39.97 39.25 39.97 39.3 39.97C39.43 39.97 39.56 39.94 39.68 39.9C39.71 39.88 39.74 39.87 39.78 39.85C39.81 39.83 39.86 39.82 39.89 39.8L46.32 35.53C46.34 35.51 46.35 35.49 46.38 35.47C46.4 35.45 46.43 35.44 46.46 35.42L49 33.04C50.32 31.8 50.51 29.77 49.42 28.31ZM4.26 35.54C3.91 35.72 3.52 35.76 3.14 35.64C2.77 35.52 2.46 35.27 2.29 34.92C1.96 34.3 2.15 33.53 2.71 33.12L5.34 31.86L5.97 33.7L6.24 34.48L4.26 35.54ZM11.25 31.88L8.15 33.48L7.64 31.99L7.28 30.91L11.33 28.91L11.25 31.88ZM41.45 18.64C41.45 20.48 41.01 22.21 40.25 23.76L31.89 19.96C31.8 18.81 31.21 17.81 30.31 17.18L33.24 7.46C38 8.98 41.45 13.41 41.45 18.64ZM17.87 18.64C17.87 12.17 23.16 6.91 29.66 6.91C30.17 6.91 30.66 6.95 31.15 7.01L28.29 16.52C28.25 16.52 28.21 16.51 28.17 16.51C26.11 16.51 24.43 18.18 24.43 20.24C24.43 22.3 26.11 23.97 28.17 23.97C29.56 23.97 30.76 23.21 31.41 22.08L39.13 25.59C36.98 28.49 33.54 30.37 29.66 30.37C23.16 30.37 17.87 25.11 17.87 18.64ZM29.78 20.24C29.78 21.12 29.06 21.84 28.17 21.84C27.28 21.84 26.56 21.12 26.56 20.24C26.56 19.36 27.28 18.64 28.17 18.64C29.06 18.64 29.78 19.36 29.78 20.24ZM4.92 50.29C4.45 50.76 3.69 50.75 3.22 50.29C2.99 50.06 2.86 49.76 2.86 49.44C2.86 49.12 2.99 48.83 3.22 48.6L5.14 46.68L6.84 48.38L4.92 50.29ZM11.35 57.75C10.88 58.22 10.11 58.22 9.64 57.76C9.42 57.53 9.29 57.23 9.29 56.91C9.29 56.59 9.42 56.29 9.64 56.07L11.57 54.15L12.37 54.95L13.27 55.84L11.35 57.75ZM18.32 50.82C18.31 50.82 18.31 50.82 18.31 50.82L14.78 54.34L13.98 53.54L13.08 52.64L16.61 49.13C16.61 49.13 16.61 49.13 16.61 49.13C16.61 49.13 16.61 49.13 16.61 49.13C16.69 49.05 16.74 48.95 16.79 48.86C16.8 48.83 16.83 48.81 16.84 48.78C16.87 48.7 16.88 48.61 16.89 48.52C16.9 48.47 16.92 48.43 16.92 48.38C16.92 48.31 16.89 48.24 16.88 48.17C16.87 48.1 16.87 48.04 16.84 47.97C16.8 47.87 16.73 47.79 16.66 47.7C16.64 47.68 16.63 47.65 16.61 47.62C16.61 47.62 16.61 47.62 16.61 47.62C16.61 47.62 16.61 47.62 16.61 47.62L13.39 44.42C13.36 44.39 13.31 44.37 13.28 44.34C13.22 44.3 13.16 44.26 13.1 44.23C13.04 44.2 12.98 44.18 12.92 44.16C12.85 44.14 12.78 44.13 12.71 44.12C12.64 44.12 12.58 44.13 12.52 44.13C12.45 44.14 12.38 44.15 12.31 44.17C12.24 44.19 12.18 44.23 12.12 44.26C12.08 44.29 12.04 44.29 12 44.32L8.45 46.97L6.65 45.17L11.45 40.4L20.17 48.98L18.32 50.82ZM31.95 36.78C31.92 36.78 31.89 36.79 31.86 36.79C31.78 36.78 31.71 36.79 31.63 36.8C31.57 36.81 31.51 36.82 31.46 36.85C31.39 36.87 31.33 36.9 31.26 36.94C31.2 36.98 31.15 37.01 31.1 37.06C31.07 37.08 31.04 37.09 31.02 37.12L21.62 47.41L12.96 38.9L18.63 33.26C19.05 32.85 19.05 32.17 18.63 31.75C18.42 31.54 18.15 31.44 17.87 31.44L17.87 31.44L13.43 31.47L13.49 28.25L19.7 28.3C22.23 30.89 25.76 32.51 29.66 32.51C30.53 32.51 31.39 32.42 32.22 32.26C32.3 32.32 32.38 32.39 32.48 32.43L37.3 34.35L37.6 35.87L37.96 37.64L31.95 36.78ZM40.04 37.14L39.41 34.02L42.3 31.86L43.06 32.87L44.2 34.38L40.04 37.14ZM47.54 31.48L45.87 33.05L44 30.58L45.67 29.3C45.98 29.06 46.37 28.96 46.75 29.01C47.14 29.07 47.48 29.27 47.71 29.58C48.15 30.17 48.07 30.98 47.54 31.48Z" fill="#2E2F42" fill-opacity="1.000000" fill-rule="nonzero"/>
		<path id="Vector" d="M27.2 37.08L22.91 32.82C22.5 32.4 21.82 32.4 21.41 32.82L17.12 37.08C16.92 37.28 16.81 37.56 16.81 37.84C16.81 38.12 16.92 38.4 17.12 38.6L21.41 42.86C21.62 43.07 21.89 43.17 22.16 43.17C22.43 43.17 22.71 43.07 22.91 42.86L27.2 38.6C27.4 38.4 27.51 38.12 27.51 37.84C27.51 37.56 27.4 37.28 27.2 37.08ZM22.16 40.6L19.39 37.84L22.16 35.08L24.94 37.84L22.16 40.6Z" fill="#2E2F42" fill-opacity="1.000000" fill-rule="nonzero"/>
		<path id="Vector" d="M34.32 10.14L33.81 12.21C33.95 12.24 37.28 13.11 37.28 16.51L39.42 16.51C39.42 12.47 36.09 10.57 34.32 10.14Z" fill="#2E2F42" fill-opacity="1.000000" fill-rule="nonzero"/>
		<path id="Vector" d="M37.28 18.64L39.42 18.64L39.42 20.77L37.28 20.77L37.28 18.64Z" fill="#2E2F42" fill-opacity="1.000000" fill-rule="evenodd"/>
	</g>
</svg>
