<svg width="64.000000" height="64.000000" viewBox="0 0 64 64" fill="none" xmlns="http://www.w3.org/2000/svg" xmlns:xlink="http://www.w3.org/1999/xlink">
	<desc>
			Created with Pixso.
	</desc>
	<defs>
		<clipPath id="clip302815_4220">
			<rect id="clock 1" rx="0.000000" width="63.000000" height="63.000000" transform="translate(0.500000 0.500000)" fill="white" fill-opacity="0"/>
		</clipPath>
	</defs>
	<rect id="clock 1" rx="0.000000" width="63.000000" height="63.000000" transform="translate(0.500000 0.500000)" fill="#FFFFFF" fill-opacity="0"/>
	<g clip-path="url(#clip302815_4220)">
		<path id="Vector" d="M62.59 30.6C62.58 13.69 48.88 -0.01 31.97 0C15.07 0 1.37 13.71 1.37 30.61C1.37 43.93 9.98 55.71 22.67 59.76C22.79 59.8 22.92 59.82 23.04 59.82C23.28 59.82 23.52 59.76 23.73 59.63C24 59.47 24.2 59.22 24.29 58.92L32.02 34.42C34.14 34.41 35.84 32.69 35.83 30.57C35.82 28.46 34.1 26.76 31.98 26.77C31.42 26.77 30.85 26.9 30.34 27.15L20.13 16.94C19.63 16.45 18.82 16.46 18.33 16.97C17.85 17.46 17.85 18.25 18.33 18.74L28.54 28.96C27.75 30.56 28.2 32.49 29.61 33.58L22.24 56.92C7.69 51.56 0.23 35.41 5.6 20.86C10.96 6.3 27.1 -1.15 41.66 4.21C56.22 9.57 63.67 25.72 58.31 40.28C55.69 47.39 50.3 53.14 43.38 56.22L42.59 52.47C42.44 51.79 41.76 51.34 41.07 51.49C40.86 51.54 40.66 51.64 40.49 51.79L32.82 58.64C32.29 59.11 32.24 59.91 32.71 60.44C32.86 60.61 33.06 60.74 33.28 60.81L43.08 63.93C43.75 64.15 44.46 63.78 44.68 63.11C44.75 62.9 44.76 62.67 44.71 62.45L43.93 58.78C55.26 54 62.61 42.89 62.59 30.6ZM31.98 29.32C32.68 29.32 33.25 29.89 33.25 30.6C33.25 31.3 32.68 31.87 31.98 31.87C31.27 31.87 30.7 31.3 30.7 30.6C30.7 29.89 31.27 29.32 31.98 29.32ZM36.18 59.05L40.55 55.15L41.75 60.83L36.18 59.05Z" fill="#2E2F42" fill-opacity="1.000000" fill-rule="nonzero"/>
		<path id="Vector" d="M30.7 6.37L30.7 8.92C30.7 9.62 31.27 10.19 31.98 10.19C32.68 10.19 33.25 9.62 33.25 8.92L33.25 6.37C33.25 5.66 32.68 5.09 31.98 5.09C31.27 5.09 30.7 5.66 30.7 6.37Z" fill="#4D5AE5" fill-opacity="1.000000" fill-rule="nonzero"/>
		<path id="Vector" d="M7.75 29.32C7.04 29.32 6.47 29.89 6.47 30.6C6.47 31.3 7.04 31.87 7.75 31.87L10.3 31.87C11 31.87 11.57 31.3 11.57 30.6C11.57 29.89 11 29.32 10.3 29.32L7.75 29.32Z" fill="#4D5AE5" fill-opacity="1.000000" fill-rule="nonzero"/>
		<path id="Vector" d="M56.21 31.87C56.92 31.87 57.49 31.3 57.49 30.6C57.49 29.89 56.92 29.32 56.21 29.32L53.66 29.32C52.96 29.32 52.39 29.89 52.39 30.6C52.39 31.3 52.96 31.87 53.66 31.87L56.21 31.87Z" fill="#4D5AE5" fill-opacity="1.000000" fill-rule="nonzero"/>
	</g>
</svg>
