<svg width="64.000000" height="64.000000" viewBox="0 0 64 64" fill="none" xmlns="http://www.w3.org/2000/svg" xmlns:xlink="http://www.w3.org/1999/xlink">
	<desc>
			Created with Pixso.
	</desc>
	<defs>
		<clipPath id="clip302815_4209">
			<rect id="diagram 1" rx="0.000000" width="63.000000" height="63.000000" transform="translate(0.500000 0.500000)" fill="white" fill-opacity="0"/>
		</clipPath>
	</defs>
	<rect id="diagram 1" rx="0.000000" width="63.000000" height="63.000000" transform="translate(0.500000 0.500000)" fill="#FFFFFF" fill-opacity="0"/>
	<g clip-path="url(#clip302815_4209)">
		<path id="Vector" d="M29.85 29.92L31.98 29.92L31.98 39.52L29.85 39.52L29.85 29.92Z" fill="#4D5AE5" fill-opacity="1.000000" fill-rule="nonzero"/>
		<path id="Vector" d="M38.37 34.19L40.51 34.19L40.51 39.52L38.37 39.52L38.37 34.19Z" fill="#4D5AE5" fill-opacity="1.000000" fill-rule="nonzero"/>
		<path id="Vector" d="M21.32 37.39L23.45 37.39L23.45 39.52L21.32 39.52L21.32 37.39Z" fill="#4D5AE5" fill-opacity="1.000000" fill-rule="nonzero"/>
		<path id="Vector" d="M14.92 36.32L17.05 36.32L17.05 39.52L14.92 39.52L14.92 36.32Z" fill="#4D5AE5" fill-opacity="1.000000" fill-rule="nonzero"/>
		<path id="Vector" d="M3.19 56.58L54.37 56.58C56.13 56.58 57.56 55.14 57.56 53.38L57.56 49.11C57.56 47.35 56.13 45.92 54.37 45.92L53.3 45.92L53.3 19.33L59.36 13.59C60.76 14.29 62.46 13.86 63.38 12.6C64.3 11.33 64.17 9.58 63.08 8.46C61.98 7.34 60.24 7.17 58.95 8.06C57.66 8.95 57.2 10.65 57.86 12.07L53.3 16.39L53.3 13.93C53.3 12.17 51.87 10.73 50.1 10.73L7.46 10.73C5.69 10.73 4.26 12.17 4.26 13.93L4.26 45.92L3.19 45.92C1.43 45.92 0 47.35 0 49.11L0 53.38C0 55.14 1.43 56.58 3.19 56.58ZM60.76 9.67C61.35 9.67 61.83 10.15 61.83 10.73C61.83 11.32 61.35 11.8 60.76 11.8C60.17 11.8 59.7 11.32 59.7 10.73C59.7 10.15 60.17 9.67 60.76 9.67ZM6.39 13.93C6.39 13.34 6.87 12.87 7.46 12.87L50.1 12.87C50.69 12.87 51.17 13.34 51.17 13.93L51.17 18.41L49.04 20.44L49.04 16.06C49.04 15.48 48.56 15 47.97 15L9.59 15C9 15 8.52 15.48 8.52 16.06L8.52 42.72C8.52 43.31 9 43.78 9.59 43.78L47.97 43.78C48.56 43.78 49.04 43.31 49.04 42.72L49.04 23.37L51.17 21.35L51.17 45.92L6.39 45.92L6.39 13.93ZM15.99 27.79C14.54 27.79 13.28 28.75 12.89 30.14C12.51 31.53 13.1 33 14.34 33.74C15.58 34.48 17.16 34.29 18.2 33.29L21.91 35.15C22.34 35.36 22.86 35.26 23.18 34.9L31.06 26.04L38.8 31.84C39.22 32.15 39.8 32.12 40.17 31.76L46.9 25.39L46.9 41.65L10.66 41.65L10.66 17.13L46.9 17.13L46.9 22.45L39.36 29.59L31.55 23.74C31.11 23.41 30.48 23.47 30.12 23.88L22.13 32.87L19.14 31.38C19.17 31.25 19.18 31.12 19.18 30.99C19.18 29.22 17.75 27.79 15.99 27.79ZM17.05 30.99C17.05 31.58 16.58 32.06 15.99 32.06C15.4 32.06 14.92 31.58 14.92 30.99C14.92 30.4 15.4 29.92 15.99 29.92C16.58 29.92 17.05 30.4 17.05 30.99ZM23.45 48.05L34.11 48.05L34.11 49.11C34.11 49.7 33.63 50.18 33.04 50.18L24.52 50.18C23.93 50.18 23.45 49.7 23.45 49.11L23.45 48.05ZM2.13 49.11C2.13 48.53 2.6 48.05 3.19 48.05L21.32 48.05L21.32 49.11C21.32 50.88 22.75 52.31 24.52 52.31L33.04 52.31C34.81 52.31 36.24 50.88 36.24 49.11L36.24 48.05L54.37 48.05C54.96 48.05 55.43 48.53 55.43 49.11L55.43 53.38C55.43 53.97 54.96 54.44 54.37 54.44L3.19 54.44C2.6 54.44 2.13 53.97 2.13 53.38L2.13 49.11Z" fill="#2E2F42" fill-opacity="1.000000" fill-rule="nonzero"/>
	</g>
</svg>
