<svg width="16.000000" height="16.000000" viewBox="0 0 16 16" fill="none" xmlns="http://www.w3.org/2000/svg" xmlns:xlink="http://www.w3.org/1999/xlink">
	<desc>
			Created with Pixso.
	</desc>
	<defs>
		<clipPath id="clip34_1480">
			<rect id="linkedin 1" rx="0.000000" width="15.000000" height="15.000000" transform="translate(0.500000 0.500000)" fill="white" fill-opacity="0"/>
		</clipPath>
	</defs>
	<rect id="linkedin 1" rx="0.000000" width="15.000000" height="15.000000" transform="translate(0.500000 0.500000)" fill="#FFFFFF" fill-opacity="0"/>
	<g clip-path="url(#clip34_1480)">
		<path id="Vector" d="M15.99 16L15.99 15.99L16 15.99L16 10.13C16 7.26 15.38 5.04 12.02 5.04C10.41 5.04 9.33 5.93 8.88 6.77L8.84 6.77L8.84 5.31L5.65 5.31L5.65 15.99L8.97 15.99L8.97 10.71C8.97 9.31 9.23 7.97 10.96 7.97C12.66 7.97 12.68 9.56 12.68 10.79L12.68 16L15.99 16Z" fill="#F4F4FD" fill-opacity="1.000000" fill-rule="nonzero"/>
		<path id="Vector" d="M0.26 5.31L3.58 5.31L3.58 16L0.26 16L0.26 5.31Z" fill="#F4F4FD" fill-opacity="1.000000" fill-rule="nonzero"/>
		<path id="Vector" d="M1.92 0C0.86 0 0 0.86 0 1.92C0 2.98 0.86 3.86 1.92 3.86C2.98 3.86 3.84 2.98 3.84 1.92C3.84 0.86 2.98 0 1.92 0L1.92 0Z" fill="#F4F4FD" fill-opacity="1.000000" fill-rule="nonzero"/>
	</g>
</svg>
