<svg width="16.000000" height="16.000000" viewBox="0 0 16 16" fill="none" xmlns="http://www.w3.org/2000/svg" xmlns:xlink="http://www.w3.org/1999/xlink">
	<desc>
			Created with Pixso.
	</desc>
	<defs>
		<clipPath id="clip33_1470">
			<rect id="twitter 1" rx="0.000000" width="15.000000" height="15.000000" transform="translate(0.500000 0.500000)" fill="white" fill-opacity="0"/>
		</clipPath>
	</defs>
	<rect id="twitter 1" rx="0.000000" width="15.000000" height="15.000000" transform="translate(0.500000 0.500000)" fill="#FFFFFF" fill-opacity="0"/>
	<g clip-path="url(#clip33_1470)">
		<path id="Vector" d="M16 3.03C15.4 3.29 14.77 3.47 14.11 3.55C14.79 3.15 15.3 2.51 15.55 1.74C14.91 2.12 14.21 2.38 13.47 2.53C12.87 1.89 12.01 1.5 11.07 1.5C9.26 1.5 7.79 2.97 7.79 4.78C7.79 5.04 7.82 5.29 7.87 5.52C5.14 5.39 2.73 4.08 1.11 2.09C0.83 2.58 0.66 3.15 0.66 3.75C0.66 4.89 1.25 5.89 2.12 6.48C1.59 6.47 1.07 6.31 0.64 6.07C0.64 6.08 0.64 6.1 0.64 6.11C0.64 7.7 1.77 9.03 3.26 9.33C3 9.4 2.71 9.44 2.4 9.44C2.19 9.44 1.98 9.43 1.78 9.38C2.21 10.68 3.41 11.64 4.85 11.67C3.73 12.54 2.31 13.07 0.78 13.07C0.51 13.07 0.25 13.06 0 13.02C1.45 13.96 3.17 14.5 5.03 14.5C11.06 14.5 14.36 9.5 14.36 5.16C14.36 5.02 14.36 4.88 14.35 4.74C15 4.28 15.55 3.7 16 3.03Z" fill="#F4F4FD" fill-opacity="1.000000" fill-rule="nonzero"/>
	</g>
</svg>
